# xmcd CD database file generated by OrangeCD 5.2
#
# Track frame offsets:
#	150
#	14391
#	28973
#	39809
#	52851
#	72705
#	84649
#	101107
#	114626
#	128518
#	143149
#	157457
#	175275
#	192655
#	208004
#	218016
#
# Disc length: 4081 seconds
#
# Revision: 4
# Processed by: cddbd v1.5.1PL0 Copyright (c) Steve Scherf et al.
# Submitted via: OrangeCD 5.2
#
DISCID=ef0fef10
DTITLE=Mike Sanchez with Knock-Out Greg and Blue Weather - Women and Cadillacs
DYEAR=2003
DGENRE=Rock
TTITLE0=Cadillac Baby
TTITLE1=All She Wants to Do is Rock
TTITLE2=The Voice Within
TTITLE3=Hot Dog
TTITLE4=You Gonna Win
TTITLE5=Strollin' with Bones
TTITLE6=Let this Lovin' Begin
TTITLE7=Women and Cadillacs
TTITLE8=You Got Money
TTITLE9=If Lovin' is Believing
TTITLE10=Gambling Woman Blues
TTITLE11=Poor Boy
TTITLE12=Easy Boogie
TTITLE13=Drunk
TTITLE14=King Kong
TTITLE15=I Need a Woman
EXTD=
EXTT0=
EXTT1=
EXTT2=
EXTT3=
EXTT4=
EXTT5=
EXTT6=
EXTT7=
EXTT8=
EXTT9=
EXTT10=
EXTT11=
EXTT12=
EXTT13=
EXTT14=
EXTT15=
PLAYORDER=
